<?xml version="1.0" encoding="UTF-8" standalone="no"?>
<!-- Created with Inkscape (http://www.inkscape.org/) -->

<svg
   xmlns:dc="http://purl.org/dc/elements/1.1/"
   xmlns:cc="http://creativecommons.org/ns#"
   xmlns:rdf="http://www.w3.org/1999/02/22-rdf-syntax-ns#"
   xmlns:svg="http://www.w3.org/2000/svg"
   xmlns="http://www.w3.org/2000/svg"
   xmlns:sodipodi="http://sodipodi.sourceforge.net/DTD/sodipodi-0.dtd"
   xmlns:inkscape="http://www.inkscape.org/namespaces/inkscape"
   width="244.82777mm"
   height="29.616371mm"
   viewBox="0 0 867.49997 104.93989"
   id="svg2"
   version="1.1"
   inkscape:version="0.91 r13725"
   sodipodi:docname="banner.svg"
   inkscape:export-filename="D:\LeMinaw\Développement\skywarehouse\static\skywarehouse\img\banner.png"
   inkscape:export-xdpi="171.4928"
   inkscape:export-ydpi="171.4928">
  <defs
     id="defs4" />
  <sodipodi:namedview
     id="base"
     pagecolor="#ffffff"
     bordercolor="#666666"
     borderopacity="1.0"
     inkscape:pageopacity="0.0"
     inkscape:pageshadow="2"
     inkscape:zoom="1"
     inkscape:cx="432.08196"
     inkscape:cy="169.8022"
     inkscape:document-units="px"
     inkscape:current-layer="layer1"
     showgrid="false"
     inkscape:object-nodes="true"
     inkscape:snap-bbox="true"
     inkscape:snap-bbox-edge-midpoints="true"
     inkscape:snap-intersection-paths="true"
     inkscape:window-width="1920"
     inkscape:window-height="1017"
     inkscape:window-x="-8"
     inkscape:window-y="-8"
     inkscape:window-maximized="1"
     inkscape:snap-global="false"
     fit-margin-top="0"
     fit-margin-left="0"
     fit-margin-right="0"
     fit-margin-bottom="0" />
  <metadata
     id="metadata7">
    <rdf:RDF>
      <cc:Work
         rdf:about="">
        <dc:format>image/svg+xml</dc:format>
        <dc:type
           rdf:resource="http://purl.org/dc/dcmitype/StillImage" />
        <dc:title></dc:title>
      </cc:Work>
    </rdf:RDF>
  </metadata>
  <g
     inkscape:label="Calque 1"
     inkscape:groupmode="layer"
     id="layer1"
     transform="translate(141.16394,-290.0813)">
    <path
       inkscape:connector-curvature="0"
       id="path4143"
       style="font-style:normal;font-variant:normal;font-weight:normal;font-stretch:normal;font-size:107.5px;line-height:125%;font-family:Inversionz;-inkscape-font-specification:Inversionz;text-align:start;letter-spacing:0px;word-spacing:0px;writing-mode:lr-tb;text-anchor:start;fill:#ffffff;fill-opacity:1;stroke:none;stroke-width:1px;stroke-linecap:butt;stroke-linejoin:miter;stroke-opacity:1"
       d="m -94.13269,303.5188 -33.59375,0 0,20.15625 26.875,0 0,6.71875 -26.875,0 0,6.71875 33.59375,0 0,-20.15625 -26.875,0 0,-6.71875 26.875,0 z m 13.4375,-13.4375 0,60.46875 -60.46875,0 0,-60.46875 z"
       sodipodi:nodetypes="cccccccccccccccccc" />
    <path
       inkscape:connector-curvature="0"
       id="path4145"
       style="font-style:normal;font-variant:normal;font-weight:normal;font-stretch:normal;font-size:107.5px;line-height:125%;font-family:Inversionz;-inkscape-font-specification:Inversionz;text-align:start;letter-spacing:0px;word-spacing:0px;writing-mode:lr-tb;text-anchor:start;fill:#ffffff;fill-opacity:1;stroke:none;stroke-width:1px;stroke-linecap:butt;stroke-linejoin:miter;stroke-opacity:1"
       d="m -53.82019,337.11255 0,-13.4375 17.006836,13.4375 9.868164,0 -20.15625,-16.37695 20.15625,-17.2168 -9.763184,0 -17.111816,13.4375 0,-13.4375 -6.71875,0 0,33.59375 z m 40.3125,-47.03125 0,60.46875 -60.46875,0 0,-60.46875 z"
       sodipodi:nodetypes="ccccccccccccccccc" />
    <path
       inkscape:connector-curvature="0"
       id="path4147"
       style="font-style:normal;font-variant:normal;font-weight:normal;font-stretch:normal;font-size:107.5px;line-height:125%;font-family:Inversionz;-inkscape-font-specification:Inversionz;text-align:start;letter-spacing:0px;word-spacing:0px;writing-mode:lr-tb;text-anchor:start;fill:#ffffff;fill-opacity:1;stroke:none;stroke-width:1px;stroke-linecap:butt;stroke-linejoin:miter;stroke-opacity:1"
       d="m 26.80481,337.11255 0,-13.4375 13.4375,-20.15625 -8.293457,0 -8.503418,11.75781 -8.398438,-11.75781 -8.3984374,0 13.4375004,20.15625 0,13.4375 z m 26.875,-47.03125 0,60.46875 -60.4687504,0 0,-60.46875 z"
       sodipodi:nodetypes="ccccccccccccccc" />
    <path
       inkscape:connector-curvature="0"
       id="path4149"
       style="font-style:normal;font-variant:normal;font-weight:normal;font-stretch:normal;font-size:107.5px;line-height:125%;font-family:Inversionz;-inkscape-font-specification:Inversionz;text-align:start;letter-spacing:0px;word-spacing:0px;writing-mode:lr-tb;text-anchor:start;fill:#ffffff;fill-opacity:1;stroke:none;stroke-width:1px;stroke-linecap:butt;stroke-linejoin:miter;stroke-opacity:1"
       d="m 73.83606,303.5188 0,33.59375 33.59375,0 0,-33.59375 -6.71875,0 0,26.875 -6.71875,0 0,-26.875 -6.71875,0 0,26.875 -6.71875,0 0,-26.875 z m 47.03125,-13.4375 0,60.46875 -60.46875,0 0,-60.46875 z"
       sodipodi:nodetypes="cccccccccccccccccc" />
    <path
       inkscape:connector-curvature="0"
       id="path4151"
       style="font-style:normal;font-variant:normal;font-weight:normal;font-stretch:normal;font-size:107.5px;line-height:125%;font-family:Inversionz;-inkscape-font-specification:Inversionz;text-align:start;letter-spacing:0px;word-spacing:0px;writing-mode:lr-tb;text-anchor:start;fill:#ffffff;fill-opacity:1;stroke:none;stroke-width:1px;stroke-linecap:butt;stroke-linejoin:miter;stroke-opacity:1"
       d="m 188.05481,290.0813 0,60.46875 -60.46875,0 0,-60.46875 z m -13.4375,47.03125 -13.4375,-33.59375 -6.71875,0 -13.4375,33.59375 7.66357,0 9.1333,-23.51563 6.50879,16.79688 -6.50879,0 0,6.71875 z"
       sodipodi:nodetypes="ccccccccccccccc" />
    <path
       style="font-style:normal;font-variant:normal;font-weight:normal;font-stretch:normal;font-size:107.5px;line-height:125%;font-family:Inversionz;-inkscape-font-specification:Inversionz;text-align:start;letter-spacing:0px;word-spacing:0px;writing-mode:lr-tb;text-anchor:start;fill:#ffffff;fill-opacity:1;stroke:none;stroke-width:1px;stroke-linecap:butt;stroke-linejoin:miter;stroke-opacity:1"
       d="m 194.77344,290.08203 0,60.46875 49.21094,0 3.25585,0 -25.59179,-26.875 -6.71875,0 0,13.4375 -6.71875,0 0,-33.59375 33.59375,0 0,20.15625 -11.86328,0 25.30078,26.875 0,-60.46875 z m 20.15625,20.15625 0,6.71875 20.15625,0 0,-6.71875 z"
       id="path4153"
       inkscape:connector-curvature="0"
       sodipodi:nodetypes="cccccccccccccccccccc" />
    <path
       inkscape:connector-curvature="0"
       id="path4155"
       style="font-style:normal;font-variant:normal;font-weight:normal;font-stretch:normal;font-size:107.5px;line-height:125%;font-family:Inversionz;-inkscape-font-specification:Inversionz;text-align:start;letter-spacing:0px;word-spacing:0px;writing-mode:lr-tb;text-anchor:start;fill:#ffffff;fill-opacity:1;stroke:none;stroke-width:1px;stroke-linecap:butt;stroke-linejoin:miter;stroke-opacity:1"
       d="m 322.42981,290.0813 0,60.46875 -60.46875,0 0,-60.46875 z m -40.3125,20.15625 26.875,0 0,-6.71875 -33.59375,0 0,33.59375 33.59375,0 0,-6.71875 -26.875,0 0,-6.71875 20.15625,0 0,-6.71875 -20.15625,0 z"
       sodipodi:nodetypes="cccccccccccccccccc" />
    <path
       inkscape:connector-curvature="0"
       id="path4157"
       style="font-style:normal;font-variant:normal;font-weight:normal;font-stretch:normal;font-size:107.5px;line-height:125%;font-family:Inversionz;-inkscape-font-specification:Inversionz;text-align:start;letter-spacing:0px;word-spacing:0px;writing-mode:lr-tb;text-anchor:start;fill:#ffffff;fill-opacity:1;stroke:none;stroke-width:1px;stroke-linecap:butt;stroke-linejoin:miter;stroke-opacity:1"
       d="m 362.74231,337.11255 0,-6.71875 -6.71875,0 0,6.71875 z m 26.875,-47.03125 0,60.46875 -60.46875,0 0,-60.46875 z"
       sodipodi:nodetypes="cccccccccc" />
    <path
       inkscape:connector-curvature="0"
       id="path4159"
       style="font-style:normal;font-variant:normal;font-weight:normal;font-stretch:normal;font-size:107.5px;line-height:125%;font-family:Inversionz;-inkscape-font-specification:Inversionz;text-align:start;letter-spacing:0px;word-spacing:0px;writing-mode:lr-tb;text-anchor:start;fill:#ffffff;fill-opacity:1;stroke:none;stroke-width:1px;stroke-linecap:butt;stroke-linejoin:miter;stroke-opacity:1"
       d="m 409.77356,303.5188 0,33.59375 6.71875,0 0,-13.4375 20.15625,0 0,13.4375 6.71875,0 0,-33.59375 -6.71875,0 0,13.4375 -20.15625,0 0,-13.4375 z m 47.03125,-13.4375 0,60.46875 -60.46875,0 0,-60.46875 z"
       sodipodi:nodetypes="cccccccccccccccccc" />
    <path
       inkscape:connector-curvature="0"
       id="path4161"
       style="font-style:normal;font-variant:normal;font-weight:normal;font-stretch:normal;font-size:107.5px;line-height:125%;font-family:Inversionz;-inkscape-font-specification:Inversionz;text-align:start;letter-spacing:0px;word-spacing:0px;writing-mode:lr-tb;text-anchor:start;fill:#ffffff;fill-opacity:1;stroke:none;stroke-width:1px;stroke-linecap:butt;stroke-linejoin:miter;stroke-opacity:1"
       d="m 523.99231,290.0813 0,60.46875 -60.46875,0 0,-60.46875 z m -20.15625,20.15625 0,20.15625 -20.15625,0 0,-20.15625 z m -26.875,-6.71875 0,33.59375 33.59375,0 0,-33.59375 z"
       sodipodi:nodetypes="ccccccccccccccc" />
    <path
       inkscape:connector-curvature="0"
       id="path4163"
       style="font-style:normal;font-variant:normal;font-weight:normal;font-stretch:normal;font-size:107.5px;line-height:125%;font-family:Inversionz;-inkscape-font-specification:Inversionz;text-align:start;letter-spacing:0px;word-spacing:0px;writing-mode:lr-tb;text-anchor:start;fill:#ffffff;fill-opacity:1;stroke:none;stroke-width:1px;stroke-linecap:butt;stroke-linejoin:miter;stroke-opacity:1"
       d="m 544.14856,303.5188 0,33.59375 33.59375,0 0,-33.59375 -6.71875,0 0,26.875 -20.15625,0 0,-26.875 z m 47.03125,-13.4375 0,60.46875 -60.46875,0 0,-60.46875 z"
       sodipodi:nodetypes="cccccccccccccc" />
    <path
       inkscape:connector-curvature="0"
       id="path4165"
       style="font-style:normal;font-variant:normal;font-weight:normal;font-stretch:normal;font-size:107.5px;line-height:125%;font-family:Inversionz;-inkscape-font-specification:Inversionz;text-align:start;letter-spacing:0px;word-spacing:0px;writing-mode:lr-tb;text-anchor:start;fill:#ffffff;fill-opacity:1;stroke:none;stroke-width:1px;stroke-linecap:butt;stroke-linejoin:miter;stroke-opacity:1"
       d="m 644.92981,303.5188 -33.59375,0 0,20.15625 26.875,0 0,6.71875 -26.875,0 0,6.71875 33.59375,0 0,-20.15625 -26.875,0 0,-6.71875 26.875,0 z m 13.4375,-13.4375 0,60.46875 -60.46875,0 0,-60.46875 z"
       sodipodi:nodetypes="cccccccccccccccccc" />
    <path
       inkscape:connector-curvature="0"
       id="path4167"
       style="font-style:normal;font-variant:normal;font-weight:normal;font-stretch:normal;font-size:107.5px;line-height:125%;font-family:Inversionz;-inkscape-font-specification:Inversionz;text-align:start;letter-spacing:0px;word-spacing:0px;writing-mode:lr-tb;text-anchor:start;fill:#ffffff;fill-opacity:1;stroke:none;stroke-width:1px;stroke-linecap:butt;stroke-linejoin:miter;stroke-opacity:1"
       d="m 725.55481,290.0813 0,60.46875 -60.46875,0 0,-60.46875 z m -40.3125,20.15625 26.875,0 0,-6.71875 -33.59375,0 0,33.59375 33.59375,0 0,-6.71875 -26.875,0 0,-6.71875 20.15625,0 0,-6.71875 -20.15625,0 z"
       sodipodi:nodetypes="cccccccccccccccccc" />
    <path
       inkscape:connector-curvature="0"
       id="path4169"
       style="font-style:normal;font-variant:normal;font-weight:normal;font-stretch:normal;font-size:medium;line-height:125%;font-family:Inversionz;-inkscape-font-specification:Inversionz;text-align:start;letter-spacing:0px;word-spacing:0px;writing-mode:lr-tb;text-anchor:start;fill:#ffffff;fill-opacity:1;stroke:none;stroke-width:1px;stroke-linecap:butt;stroke-linejoin:miter;stroke-opacity:1"
       d="m -136.16394,382.5212 12.5,0 0,2.5 -5,0 0,10 -2.5,0 0,-10 -5,0 z"
       sodipodi:nodetypes="ccccccccc" />
    <path
       inkscape:connector-curvature="0"
       id="path4171"
       style="font-style:normal;font-variant:normal;font-weight:normal;font-stretch:normal;font-size:medium;line-height:125%;font-family:Inversionz;-inkscape-font-specification:Inversionz;text-align:start;letter-spacing:0px;word-spacing:0px;writing-mode:lr-tb;text-anchor:start;fill:#ffffff;fill-opacity:1;stroke:none;stroke-width:1px;stroke-linecap:butt;stroke-linejoin:miter;stroke-opacity:1"
       d="m -108.66394,382.5212 0,5 7.5,0 0,-5 2.5,0 0,12.5 -2.5,0 0,-5 -7.5,0 0,5 -2.5,0 0,-12.5 z"
       sodipodi:nodetypes="ccccccccccccc" />
    <path
       inkscape:connector-curvature="0"
       id="path4173"
       style="font-style:normal;font-variant:normal;font-weight:normal;font-stretch:normal;font-size:medium;line-height:125%;font-family:Inversionz;-inkscape-font-specification:Inversionz;text-align:start;letter-spacing:0px;word-spacing:0px;writing-mode:lr-tb;text-anchor:start;fill:#ffffff;fill-opacity:1;stroke:none;stroke-width:1px;stroke-linecap:butt;stroke-linejoin:miter;stroke-opacity:1"
       d="m -83.66394,390.0212 0,2.5 10,0 0,2.5 -12.5,0 0,-12.5 12.5,0 0,2.5 -10,0 0,2.5 7.5,0 0,2.5 z"
       sodipodi:nodetypes="ccccccccccccc" />
    <path
       inkscape:connector-curvature="0"
       id="path4175"
       style="font-style:normal;font-variant:normal;font-weight:normal;font-stretch:normal;font-size:medium;line-height:125%;font-family:Inversionz;-inkscape-font-specification:Inversionz;text-align:start;letter-spacing:0px;word-spacing:0px;writing-mode:lr-tb;text-anchor:start;fill:#ffffff;fill-opacity:1;stroke:none;stroke-width:1px;stroke-linecap:butt;stroke-linejoin:miter;stroke-opacity:1"
       d="m -23.66394,385.0212 -10,0 0,2.5 10,0 0,7.5 -12.5,0 0,-2.5 10,0 0,-2.5 -10,0 0,-7.5 12.5,0 z"
       sodipodi:nodetypes="ccccccccccccc" />
    <path
       inkscape:connector-curvature="0"
       id="path4177"
       style="font-style:normal;font-variant:normal;font-weight:normal;font-stretch:normal;font-size:medium;line-height:125%;font-family:Inversionz;-inkscape-font-specification:Inversionz;text-align:start;letter-spacing:0px;word-spacing:0px;writing-mode:lr-tb;text-anchor:start;fill:#ffffff;fill-opacity:1;stroke:none;stroke-width:1px;stroke-linecap:butt;stroke-linejoin:miter;stroke-opacity:1"
       d="m -11.16394,395.0212 0,-12.5 2.4999996,0 0,5 6.3671875,-5 3.6328125,0 -7.5,6.40625 7.5,6.09375 -3.671875,0 -6.328125,-5 0,5 z"
       sodipodi:nodetypes="cccccccccccc" />
    <path
       inkscape:connector-curvature="0"
       id="path4179"
       style="font-style:normal;font-variant:normal;font-weight:normal;font-stretch:normal;font-size:medium;line-height:125%;font-family:Inversionz;-inkscape-font-specification:Inversionz;text-align:start;letter-spacing:0px;word-spacing:0px;writing-mode:lr-tb;text-anchor:start;fill:#ffffff;fill-opacity:1;stroke:none;stroke-width:1px;stroke-linecap:butt;stroke-linejoin:miter;stroke-opacity:1"
       d="m 18.83606,395.0212 0,-5 -5,-7.5 3.125,0 3.125,4.375 3.164062,-4.375 3.085938,0 -5,7.5 0,5 z"
       sodipodi:nodetypes="cccccccccc" />
    <path
       inkscape:connector-curvature="0"
       id="path4181"
       style="font-style:normal;font-variant:normal;font-weight:normal;font-stretch:normal;font-size:medium;line-height:125%;font-family:Inversionz;-inkscape-font-specification:Inversionz;text-align:start;letter-spacing:0px;word-spacing:0px;writing-mode:lr-tb;text-anchor:start;fill:#ffffff;fill-opacity:1;stroke:none;stroke-width:1px;stroke-linecap:butt;stroke-linejoin:miter;stroke-opacity:1"
       d="m 41.33606,382.5212 0,10 2.5,0 0,-10 2.5,0 0,10 2.5,0 0,-10 2.5,0 0,12.5 -12.5,0 0,-12.5 z"
       sodipodi:nodetypes="ccccccccccccc" />
    <path
       inkscape:connector-curvature="0"
       id="path4183"
       style="font-style:normal;font-variant:normal;font-weight:normal;font-stretch:normal;font-size:medium;line-height:125%;font-family:Inversionz;-inkscape-font-specification:Inversionz;text-align:start;letter-spacing:0px;word-spacing:0px;writing-mode:lr-tb;text-anchor:start;fill:#ffffff;fill-opacity:1;stroke:none;stroke-width:1px;stroke-linecap:butt;stroke-linejoin:miter;stroke-opacity:1"
       d="m 70.08606,395.0212 0,-2.5 2.421875,0 -2.421875,-6.25 -3.398438,8.75 -2.851562,0 5,-12.5 2.5,0 5,12.5 z"
       sodipodi:nodetypes="cccccccccc" />
    <path
       inkscape:connector-curvature="0"
       id="path4185"
       style="font-style:normal;font-variant:normal;font-weight:normal;font-stretch:normal;font-size:medium;line-height:125%;font-family:Inversionz;-inkscape-font-specification:Inversionz;text-align:start;letter-spacing:0px;word-spacing:0px;writing-mode:lr-tb;text-anchor:start;fill:#ffffff;fill-opacity:1;stroke:none;stroke-width:1px;stroke-linecap:butt;stroke-linejoin:miter;stroke-opacity:1"
       d="m 88.83606,395.0212 0,-12.5 2.5,0 7.5,8.86719 0,-8.86719 2.5,0 0,12.5 -2.5,0 -7.5,-8.59375 0,8.59375 z"
       sodipodi:nodetypes="ccccccccccc" />
    <path
       inkscape:connector-curvature="0"
       id="path4187"
       style="font-style:normal;font-variant:normal;font-weight:normal;font-stretch:normal;font-size:medium;line-height:125%;font-family:Inversionz;-inkscape-font-specification:Inversionz;text-align:start;letter-spacing:0px;word-spacing:0px;writing-mode:lr-tb;text-anchor:start;fill:#ffffff;fill-opacity:1;stroke:none;stroke-width:1px;stroke-linecap:butt;stroke-linejoin:miter;stroke-opacity:1"
       d="m 113.83606,395.0212 0,-12.5 10,0 2.5,2.5 0,7.5 -2.5,2.5 z m 2.5,-2.5 6.25,0 1.25,-1.25 0,-4.88281 -1.25,-1.36719 -6.25,0 z"
       sodipodi:nodetypes="cccccccccccccc" />
    <path
       inkscape:connector-curvature="0"
       id="path4189"
       style="font-style:normal;font-variant:normal;font-weight:normal;font-stretch:normal;font-size:medium;line-height:125%;font-family:Inversionz;-inkscape-font-specification:Inversionz;text-align:start;letter-spacing:0px;word-spacing:0px;writing-mode:lr-tb;text-anchor:start;fill:#ffffff;fill-opacity:1;stroke:none;stroke-width:1px;stroke-linecap:butt;stroke-linejoin:miter;stroke-opacity:1"
       d="m 141.33606,390.0212 0,2.5 10,0 0,2.5 -12.5,0 0,-12.5 12.5,0 0,2.5 -10,0 0,2.5 7.5,0 0,2.5 z"
       sodipodi:nodetypes="ccccccccccccc" />
    <path
       inkscape:connector-curvature="0"
       id="path4191"
       style="font-style:normal;font-variant:normal;font-weight:normal;font-stretch:normal;font-size:medium;line-height:125%;font-family:Inversionz;-inkscape-font-specification:Inversionz;text-align:start;letter-spacing:0px;word-spacing:0px;writing-mode:lr-tb;text-anchor:start;fill:#ffffff;fill-opacity:1;stroke:none;stroke-width:1px;stroke-linecap:butt;stroke-linejoin:miter;stroke-opacity:1"
       d="m 166.33606,385.0212 0,2.5 7.5,0 0,-2.5 z m 2.5,5 -2.5,0 0,5 -2.5,0 0,-12.5 12.5,0 0,7.5 -4.41406,0 4.41406,5 -3.08594,0 z"
       sodipodi:nodetypes="cccccccccccccccc" />
    <path
       inkscape:connector-curvature="0"
       id="path4193"
       style="font-style:normal;font-variant:normal;font-weight:normal;font-stretch:normal;font-size:medium;line-height:125%;font-family:Inversionz;-inkscape-font-specification:Inversionz;text-align:start;letter-spacing:0px;word-spacing:0px;writing-mode:lr-tb;text-anchor:start;fill:#ffffff;fill-opacity:1;stroke:none;stroke-width:1px;stroke-linecap:butt;stroke-linejoin:miter;stroke-opacity:1"
       d="m 191.33606,390.0212 0,2.5 10,0 0,2.5 -12.5,0 0,-12.5 12.5,0 0,2.5 -10,0 0,2.5 7.5,0 0,2.5 z"
       sodipodi:nodetypes="ccccccccccccc" />
    <path
       inkscape:connector-curvature="0"
       id="path4195"
       style="font-style:normal;font-variant:normal;font-weight:normal;font-stretch:normal;font-size:medium;line-height:125%;font-family:Inversionz;-inkscape-font-specification:Inversionz;text-align:start;letter-spacing:0px;word-spacing:0px;writing-mode:lr-tb;text-anchor:start;fill:#ffffff;fill-opacity:1;stroke:none;stroke-width:1px;stroke-linecap:butt;stroke-linejoin:miter;stroke-opacity:1"
       d="m 216.33606,385.0212 0,2.5 7.5,0 0,-2.5 z m 2.5,5 -2.5,0 0,5 -2.5,0 0,-12.5 12.5,0 0,7.5 -4.41406,0 4.41406,5 -3.08594,0 z"
       sodipodi:nodetypes="cccccccccccccccc" />
    <path
       inkscape:connector-curvature="0"
       id="path4197"
       style="font-style:normal;font-variant:normal;font-weight:normal;font-stretch:normal;font-size:medium;line-height:125%;font-family:Inversionz;-inkscape-font-specification:Inversionz;text-align:start;letter-spacing:0px;word-spacing:0px;writing-mode:lr-tb;text-anchor:start;fill:#ffffff;fill-opacity:1;stroke:none;stroke-width:1px;stroke-linecap:butt;stroke-linejoin:miter;stroke-opacity:1"
       d="m 251.33606,385.0212 -10,0 0,2.5 10,0 0,7.5 -12.5,0 0,-2.5 10,0 0,-2.5 -10,0 0,-7.5 12.5,0 z"
       sodipodi:nodetypes="ccccccccccccc" />
    <path
       inkscape:connector-curvature="0"
       id="path4199"
       style="font-style:normal;font-variant:normal;font-weight:normal;font-stretch:normal;font-size:medium;line-height:125%;font-family:Inversionz;-inkscape-font-specification:Inversionz;text-align:start;letter-spacing:0px;word-spacing:0px;writing-mode:lr-tb;text-anchor:start;fill:#ffffff;fill-opacity:1;stroke:none;stroke-width:1px;stroke-linecap:butt;stroke-linejoin:miter;stroke-opacity:1"
       d="m 301.33606,382.5212 0,12.5 -12.5,0 0,-12.5 z m -2.5,2.5 -7.5,0 0,7.5 7.5,0 0,-2.5 -5,0 0,-2.5 5,0 z"
       sodipodi:nodetypes="cccccccccccccc" />
    <path
       inkscape:connector-curvature="0"
       id="path4201"
       style="font-style:normal;font-variant:normal;font-weight:normal;font-stretch:normal;font-size:medium;line-height:125%;font-family:Inversionz;-inkscape-font-specification:Inversionz;text-align:start;letter-spacing:0px;word-spacing:0px;writing-mode:lr-tb;text-anchor:start;fill:#ffffff;fill-opacity:1;stroke:none;stroke-width:1px;stroke-linecap:butt;stroke-linejoin:miter;stroke-opacity:1"
       d="m 326.33606,395.0212 -12.5,0 0,-12.5 2.5,0 0,10 7.5,0 0,-2.5 2.5,0 z"
       sodipodi:nodetypes="ccccccccc" />
    <path
       inkscape:connector-curvature="0"
       id="path4203"
       style="font-style:normal;font-variant:normal;font-weight:normal;font-stretch:normal;font-size:medium;line-height:125%;font-family:Inversionz;-inkscape-font-specification:Inversionz;text-align:start;letter-spacing:0px;word-spacing:0px;writing-mode:lr-tb;text-anchor:start;fill:#ffffff;fill-opacity:1;stroke:none;stroke-width:1px;stroke-linecap:butt;stroke-linejoin:miter;stroke-opacity:1"
       d="m 341.33606,382.5212 0,10 7.5,0 0,-10 2.5,0 0,12.5 -12.5,0 0,-12.5 z"
       sodipodi:nodetypes="ccccccccc" />
    <path
       inkscape:connector-curvature="0"
       id="path4205"
       style="font-style:normal;font-variant:normal;font-weight:normal;font-stretch:normal;font-size:medium;line-height:125%;font-family:Inversionz;-inkscape-font-specification:Inversionz;text-align:start;letter-spacing:0px;word-spacing:0px;writing-mode:lr-tb;text-anchor:start;fill:#ffffff;fill-opacity:1;stroke:none;stroke-width:1px;stroke-linecap:butt;stroke-linejoin:miter;stroke-opacity:1"
       d="m 366.33606,390.0212 0,2.5 10,0 0,2.5 -12.5,0 0,-12.5 12.5,0 0,2.5 -10,0 0,2.5 7.5,0 0,2.5 z"
       sodipodi:nodetypes="ccccccccccccc" />
    <path
       inkscape:connector-curvature="0"
       id="path4207"
       style="font-style:normal;font-variant:normal;font-weight:normal;font-stretch:normal;font-size:medium;line-height:125%;font-family:Inversionz;-inkscape-font-specification:Inversionz;text-align:start;letter-spacing:0px;word-spacing:0px;writing-mode:lr-tb;text-anchor:start;fill:#ffffff;fill-opacity:1;stroke:none;stroke-width:1px;stroke-linecap:butt;stroke-linejoin:miter;stroke-opacity:1"
       d="m 398.83606,387.5212 0,-2.5 -7.5,0 0,2.5 z m -7.5,7.5 -2.5,0 0,-12.5 12.5,0 0,7.5 -10,0 z"
       sodipodi:nodetypes="cccccccccccc" />
    <path
       inkscape:connector-curvature="0"
       id="path4209"
       style="font-style:normal;font-variant:normal;font-weight:normal;font-stretch:normal;font-size:medium;line-height:125%;font-family:Inversionz;-inkscape-font-specification:Inversionz;text-align:start;letter-spacing:0px;word-spacing:0px;writing-mode:lr-tb;text-anchor:start;fill:#ffffff;fill-opacity:1;stroke:none;stroke-width:1px;stroke-linecap:butt;stroke-linejoin:miter;stroke-opacity:1"
       d="m 416.33606,385.0212 0,2.5 7.5,0 0,-2.5 z m 2.5,5 -2.5,0 0,5 -2.5,0 0,-12.5 12.5,0 0,7.5 -4.41406,0 4.41406,5 -3.08594,0 z"
       sodipodi:nodetypes="cccccccccccccccc" />
    <path
       inkscape:connector-curvature="0"
       id="path4211"
       style="font-style:normal;font-variant:normal;font-weight:normal;font-stretch:normal;font-size:medium;line-height:125%;font-family:Inversionz;-inkscape-font-specification:Inversionz;text-align:start;letter-spacing:0px;word-spacing:0px;writing-mode:lr-tb;text-anchor:start;fill:#ffffff;fill-opacity:1;stroke:none;stroke-width:1px;stroke-linecap:butt;stroke-linejoin:miter;stroke-opacity:1"
       d="m 446.33606,382.5212 0,12.5 -2.5,0 0,-12.5 z"
       sodipodi:nodetypes="ccccc" />
    <path
       inkscape:connector-curvature="0"
       id="path4213"
       style="font-style:normal;font-variant:normal;font-weight:normal;font-stretch:normal;font-size:medium;line-height:125%;font-family:Inversionz;-inkscape-font-specification:Inversionz;text-align:start;letter-spacing:0px;word-spacing:0px;writing-mode:lr-tb;text-anchor:start;fill:#ffffff;fill-opacity:1;stroke:none;stroke-width:1px;stroke-linecap:butt;stroke-linejoin:miter;stroke-opacity:1"
       d="m 463.83606,395.0212 0,-12.5 2.5,0 7.5,8.86719 0,-8.86719 2.5,0 0,12.5 -2.5,0 -7.5,-8.59375 0,8.59375 z"
       sodipodi:nodetypes="ccccccccccc" />
    <path
       inkscape:connector-curvature="0"
       id="path4215"
       style="font-style:normal;font-variant:normal;font-weight:normal;font-stretch:normal;font-size:medium;line-height:125%;font-family:Inversionz;-inkscape-font-specification:Inversionz;text-align:start;letter-spacing:0px;word-spacing:0px;writing-mode:lr-tb;text-anchor:start;fill:#ffffff;fill-opacity:1;stroke:none;stroke-width:1px;stroke-linecap:butt;stroke-linejoin:miter;stroke-opacity:1"
       d="m 488.83606,382.5212 12.5,0 0,2.5 -5,0 0,10 -2.5,0 0,-10 -5,0 z"
       sodipodi:nodetypes="ccccccccc" />
    <path
       inkscape:connector-curvature="0"
       id="path4217"
       style="font-style:normal;font-variant:normal;font-weight:normal;font-stretch:normal;font-size:medium;line-height:125%;font-family:Inversionz;-inkscape-font-specification:Inversionz;text-align:start;letter-spacing:0px;word-spacing:0px;writing-mode:lr-tb;text-anchor:start;fill:#ffffff;fill-opacity:1;stroke:none;stroke-width:1px;stroke-linecap:butt;stroke-linejoin:miter;stroke-opacity:1"
       d="m 526.33606,385.0212 -10,0 0,2.5 10,0 0,7.5 -12.5,0 0,-2.5 10,0 0,-2.5 -10,0 0,-7.5 12.5,0 z"
       sodipodi:nodetypes="ccccccccccccc" />
    <path
       inkscape:connector-curvature="0"
       id="path4219"
       style="font-style:normal;font-variant:normal;font-weight:normal;font-stretch:normal;font-size:medium;line-height:125%;font-family:Inversionz;-inkscape-font-specification:Inversionz;text-align:start;letter-spacing:0px;word-spacing:0px;writing-mode:lr-tb;text-anchor:start;fill:#ffffff;fill-opacity:1;stroke:none;stroke-width:1px;stroke-linecap:butt;stroke-linejoin:miter;stroke-opacity:1"
       d="m 570.08606,395.0212 0,-2.5 2.42187,0 -2.42187,-6.25 -3.39844,8.75 -2.85156,0 5,-12.5 2.5,0 5,12.5 z"
       sodipodi:nodetypes="cccccccccc" />
    <path
       inkscape:connector-curvature="0"
       id="path4221"
       style="font-style:normal;font-variant:normal;font-weight:normal;font-stretch:normal;font-size:medium;line-height:125%;font-family:Inversionz;-inkscape-font-specification:Inversionz;text-align:start;letter-spacing:0px;word-spacing:0px;writing-mode:lr-tb;text-anchor:start;fill:#ffffff;fill-opacity:1;stroke:none;stroke-width:1px;stroke-linecap:butt;stroke-linejoin:miter;stroke-opacity:1"
       d="m 591.33606,385.0212 0,2.5 7.5,0 0,-2.5 z m 2.5,5 -2.5,0 0,5 -2.5,0 0,-12.5 12.5,0 0,7.5 -4.41406,0 4.41406,5 -3.08594,0 z"
       sodipodi:nodetypes="cccccccccccccccc" />
    <path
       inkscape:connector-curvature="0"
       id="path4223"
       style="font-style:normal;font-variant:normal;font-weight:normal;font-stretch:normal;font-size:medium;line-height:125%;font-family:Inversionz;-inkscape-font-specification:Inversionz;text-align:start;letter-spacing:0px;word-spacing:0px;writing-mode:lr-tb;text-anchor:start;fill:#ffffff;fill-opacity:1;stroke:none;stroke-width:1px;stroke-linecap:butt;stroke-linejoin:miter;stroke-opacity:1"
       d="m 613.83606,382.5212 12.5,0 0,2.5 -10,0 0,7.5 10,0 0,2.5 -12.5,0 z"
       sodipodi:nodetypes="ccccccccc" />
    <path
       inkscape:connector-curvature="0"
       id="path4225"
       style="font-style:normal;font-variant:normal;font-weight:normal;font-stretch:normal;font-size:medium;line-height:125%;font-family:Inversionz;-inkscape-font-specification:Inversionz;text-align:start;letter-spacing:0px;word-spacing:0px;writing-mode:lr-tb;text-anchor:start;fill:#ffffff;fill-opacity:1;stroke:none;stroke-width:1px;stroke-linecap:butt;stroke-linejoin:miter;stroke-opacity:1"
       d="m 641.33606,382.5212 0,5 7.5,0 0,-5 2.5,0 0,12.5 -2.5,0 0,-5 -7.5,0 0,5 -2.5,0 0,-12.5 z"
       sodipodi:nodetypes="ccccccccccccc" />
    <path
       inkscape:connector-curvature="0"
       id="path4227"
       style="font-style:normal;font-variant:normal;font-weight:normal;font-stretch:normal;font-size:medium;line-height:125%;font-family:Inversionz;-inkscape-font-specification:Inversionz;text-align:start;letter-spacing:0px;word-spacing:0px;writing-mode:lr-tb;text-anchor:start;fill:#ffffff;fill-opacity:1;stroke:none;stroke-width:1px;stroke-linecap:butt;stroke-linejoin:miter;stroke-opacity:1"
       d="m 671.33606,382.5212 0,12.5 -2.5,0 0,-12.5 z"
       sodipodi:nodetypes="ccccc" />
    <path
       inkscape:connector-curvature="0"
       id="path4229"
       style="font-style:normal;font-variant:normal;font-weight:normal;font-stretch:normal;font-size:medium;line-height:125%;font-family:Inversionz;-inkscape-font-specification:Inversionz;text-align:start;letter-spacing:0px;word-spacing:0px;writing-mode:lr-tb;text-anchor:start;fill:#ffffff;fill-opacity:1;stroke:none;stroke-width:1px;stroke-linecap:butt;stroke-linejoin:miter;stroke-opacity:1"
       d="m 701.33606,382.5212 -5,12.5 -2.5,0 -5,-12.5 2.85156,0 3.39844,8.75 2.42187,-6.25 -2.42187,0 0,-2.5 z"
       sodipodi:nodetypes="cccccccccc" />
    <path
       inkscape:connector-curvature="0"
       id="path4231"
       style="font-style:normal;font-variant:normal;font-weight:normal;font-stretch:normal;font-size:medium;line-height:125%;font-family:Inversionz;-inkscape-font-specification:Inversionz;text-align:start;letter-spacing:0px;word-spacing:0px;writing-mode:lr-tb;text-anchor:start;fill:#ffffff;fill-opacity:1;stroke:none;stroke-width:1px;stroke-linecap:butt;stroke-linejoin:miter;stroke-opacity:1"
       d="m 716.33606,390.0212 0,2.5 10,0 0,2.5 -12.5,0 0,-12.5 12.5,0 0,2.5 -10,0 0,2.5 7.5,0 0,2.5 z"
       sodipodi:nodetypes="ccccccccccccc" />
    <path
       style="opacity:1;fill:#ffffff;fill-opacity:1;stroke:none;stroke-width:0.01;stroke-linecap:butt;stroke-linejoin:miter;stroke-miterlimit:1.41420996;stroke-dasharray:none;stroke-dashoffset:0;stroke-opacity:1"
       d="m 247.24023,350.55078 13.08789,13.72266 330.85169,0 0,-6.71875 -329.34973,0 -6.58789,-7.00391 z"
       id="rect4306"
       inkscape:connector-curvature="0"
       sodipodi:nodetypes="ccccccc" />
  </g>
</svg>
