<?xml version="1.0" encoding="UTF-8" standalone="no"?>
<!-- Created with Inkscape (http://www.inkscape.org/) -->

<svg
   xmlns:dc="http://purl.org/dc/elements/1.1/"
   xmlns:cc="http://creativecommons.org/ns#"
   xmlns:rdf="http://www.w3.org/1999/02/22-rdf-syntax-ns#"
   xmlns:svg="http://www.w3.org/2000/svg"
   xmlns="http://www.w3.org/2000/svg"
   xmlns:sodipodi="http://sodipodi.sourceforge.net/DTD/sodipodi-0.dtd"
   xmlns:inkscape="http://www.inkscape.org/namespaces/inkscape"
   width="200mm"
   height="200mm"
   viewBox="0 0 200 200"
   version="1.1"
   id="svg8"
   inkscape:version="0.92.2 (5c3e80d, 2017-08-06)"
   sodipodi:docname="nouser.svg"
   inkscape:export-filename="D:\LeMinaw\Dev\skywarehouse\warehouse\static\warehouse\img\nouser.png"
   inkscape:export-xdpi="50.799999"
   inkscape:export-ydpi="50.799999">
  <defs
     id="defs2" />
  <sodipodi:namedview
     id="base"
     pagecolor="#ffffff"
     bordercolor="#666666"
     borderopacity="1.0"
     inkscape:pageopacity="0.0"
     inkscape:pageshadow="2"
     inkscape:zoom="0.98994949"
     inkscape:cx="197.52914"
     inkscape:cy="332.844"
     inkscape:document-units="mm"
     inkscape:current-layer="layer1"
     showgrid="false"
     inkscape:object-paths="true"
     inkscape:window-width="2560"
     inkscape:window-height="1377"
     inkscape:window-x="1912"
     inkscape:window-y="-8"
     inkscape:window-maximized="1"
     fit-margin-top="0"
     fit-margin-left="0"
     fit-margin-right="0"
     fit-margin-bottom="0"
     inkscape:snap-bbox="true"
     inkscape:snap-bbox-midpoints="true"
     inkscape:snap-object-midpoints="true" />
  <metadata
     id="metadata5">
    <rdf:RDF>
      <cc:Work
         rdf:about="">
        <dc:format>image/svg+xml</dc:format>
        <dc:type
           rdf:resource="http://purl.org/dc/dcmitype/StillImage" />
        <dc:title></dc:title>
      </cc:Work>
    </rdf:RDF>
  </metadata>
  <g
     inkscape:label="Calque 1"
     inkscape:groupmode="layer"
     id="layer1"
     transform="translate(-22.287474,-20.65422)">
    <path
       style="opacity:1;fill:#b3b3b3;fill-opacity:1;stroke:none;stroke-width:0.34999999;stroke-linecap:butt;stroke-linejoin:miter;stroke-miterlimit:4;stroke-dasharray:none;stroke-dashoffset:1.51181102;stroke-opacity:1"
       d="M 122.38321,38.110003 A 82.398811,82.398811 0 0 0 39.984589,120.5086 82.398811,82.398811 0 0 0 122.38321,202.90771 82.398811,82.398811 0 0 0 204.78232,120.5086 82.398811,82.398811 0 0 0 122.38321,38.110003 Z m 0,24.833109 A 24.757442,24.757442 0 0 1 147.14087,87.700257 24.757442,24.757442 0 0 1 122.38321,112.45793 24.757442,24.757442 0 0 1 97.626031,87.700257 24.757442,24.757442 0 0 1 122.38321,62.943112 Z m 0,65.352098 c 24.27884,-5e-5 44.65182,10.12336 50.25378,23.78253 -10.50327,16.68455 -29.08239,27.77357 -50.25378,27.7735 -21.17133,-6e-5 -39.7501,-11.08899 -50.253297,-27.7735 5.601917,-13.65911 25.974532,-23.78249 50.253297,-23.78253 z"
       id="path876"
       inkscape:connector-curvature="0" />
  </g>
</svg>
